<svg width="187" height="180" viewBox="0 0 187 180" fill="none" xmlns="http://www.w3.org/2000/svg">
<path d="M62.0193 143.62L62.9167 143.179L62.9125 143.17L62.9082 143.162L62.0193 143.62ZM62.7127 146.758L63.712 146.795L63.712 146.795L62.7127 146.758ZM61.6912 149.802L62.4984 150.392L62.5107 150.375L62.5223 150.358L61.6912 149.802ZM58.0577 154.771L58.8397 155.394L58.8526 155.378L58.8649 155.361L58.0577 154.771ZM55.467 156.668L55.7999 157.61L55.8054 157.609L55.467 156.668ZM52.245 156.987L52.0967 157.976L52.1066 157.978L52.245 156.987ZM46.2598 152.121L47.1875 151.747L47.1875 151.747L46.2598 152.121ZM45.7602 147.742L46.7495 147.888L46.7513 147.874L45.7602 147.742ZM51.221 140.273L51.6482 141.177L51.6605 141.171L51.221 140.273ZM55.5454 139.421L55.471 140.419L55.471 140.419L55.5454 139.421ZM55.6313 144.122L55.7433 143.128L55.7301 143.127L55.7169 143.126L55.6313 144.122ZM53.4043 144.545L53.8388 145.446L53.8501 145.44L53.4043 144.545ZM50.5145 148.497L51.5005 148.664L51.5039 148.644L51.5064 148.624L50.5145 148.497ZM50.7867 150.748L51.7101 150.364L51.7051 150.352L51.6997 150.34L50.7867 150.748ZM54.4773 153.446L54.5893 152.453L54.5761 152.451L54.5629 152.45L54.4773 153.446ZM56.7334 153.045L57.168 153.945L57.1793 153.94L56.7334 153.045ZM59.6232 149.092L60.6092 149.259L60.6126 149.239L60.6151 149.219L59.6232 149.092ZM59.3511 146.842L60.2806 146.473L60.2728 146.453L60.264 146.434L59.3511 146.842ZM71.6017 141.127L72.4089 141.717L72.9992 140.91L72.192 140.32L71.6017 141.127ZM57.0465 161.033L56.4563 161.841L57.2635 162.431L57.8538 161.624L57.0465 161.033ZM53.2396 158.25L52.4324 157.66L51.8422 158.467L52.6494 159.057L53.2396 158.25ZM55.9382 154.559L55.2539 153.83L55.186 153.894L55.1309 153.969L55.9382 154.559ZM59.0636 151.627L59.7478 152.356L59.8818 152.23L59.9624 152.065L59.0636 151.627ZM60.9394 147.78L60.1321 147.19L60.0796 147.262L60.0406 147.342L60.9394 147.78ZM67.8239 138.365L68.4141 137.558L67.6069 136.967L67.0166 137.775L67.8239 138.365ZM59.1436 141.819C60.0394 142.474 60.6926 143.228 61.1304 144.078L62.9082 143.162C62.3135 142.008 61.4432 141.023 60.3241 140.205L59.1436 141.819ZM61.1219 144.061C61.5556 144.943 61.7466 145.825 61.7134 146.721L63.712 146.795C63.7583 145.548 63.4871 144.339 62.9167 143.179L61.1219 144.061ZM61.7134 146.721C61.681 147.592 61.4063 148.429 60.8601 149.246L62.5223 150.358C63.2585 149.258 63.6648 148.065 63.712 146.795L61.7134 146.721ZM60.884 149.212L57.2505 154.181L58.8649 155.361L62.4984 150.392L60.884 149.212ZM57.2757 154.148C56.6635 154.916 55.9493 155.431 55.1285 155.727L55.8054 157.609C57.0015 157.178 58.0145 156.43 58.8397 155.394L57.2757 154.148ZM55.134 155.725C54.2447 156.039 53.3325 156.13 52.3834 155.997L52.1066 157.978C53.3695 158.154 54.6052 158.032 55.7999 157.61L55.134 155.725ZM52.3933 155.999C51.4429 155.856 50.5259 155.473 49.6361 154.822L48.4556 156.437C49.5807 157.259 50.7965 157.781 52.0967 157.976L52.3933 155.999ZM49.6361 154.822C48.4774 153.975 47.672 152.951 47.1875 151.747L45.3321 152.494C45.9663 154.07 47.0183 155.386 48.4556 156.437L49.6361 154.822ZM47.1875 151.747C46.6966 150.527 46.5483 149.247 46.7494 147.888L44.7709 147.595C44.5196 149.294 44.7044 150.934 45.3321 152.494L47.1875 151.747ZM46.7513 147.874C46.9337 146.514 47.4752 145.2 48.4076 143.924L46.7931 142.744C45.6857 144.258 45.0004 145.882 44.769 147.609L46.7513 147.874ZM48.4076 143.924C49.3243 142.671 50.405 141.765 51.6482 141.177L50.7939 139.369C49.221 140.112 47.8879 141.247 46.7931 142.744L48.4076 143.924ZM51.6605 141.171C52.895 140.567 54.1596 140.321 55.471 140.419L55.6198 138.424C53.9427 138.299 52.3244 138.62 50.7816 139.375L51.6605 141.171ZM55.471 140.419C56.7653 140.515 57.9849 140.972 59.1436 141.819L60.3241 140.205C58.8867 139.154 57.3141 138.55 55.6198 138.424L55.471 140.419ZM58.4214 144.21C57.6002 143.609 56.7048 143.237 55.7433 143.128L55.5194 145.116C56.0961 145.181 56.6673 145.405 57.2409 145.824L58.4214 144.21ZM55.7169 143.126C54.7512 143.043 53.8249 143.219 52.9585 143.65L53.8501 145.44C54.3865 145.173 54.9449 145.067 55.5457 145.119L55.7169 143.126ZM52.9698 143.645C52.0666 144.08 51.3009 144.752 50.666 145.62L52.2804 146.801C52.7504 146.158 53.2722 145.719 53.8388 145.446L52.9698 143.645ZM50.666 145.62C50.0428 146.472 49.6478 147.391 49.5226 148.371L51.5064 148.624C51.5829 148.027 51.827 147.421 52.2804 146.801L50.666 145.62ZM49.5285 148.331C49.3626 149.311 49.474 150.262 49.8737 151.156L51.6997 150.34C51.4677 149.821 51.3977 149.272 51.5005 148.664L49.5285 148.331ZM49.8632 151.132C50.2419 152.043 50.865 152.802 51.6951 153.409L52.8756 151.795C52.3108 151.382 51.9347 150.905 51.7101 150.364L49.8632 151.132ZM51.6951 153.409C52.5104 154.005 53.4136 154.359 54.3918 154.443L54.5629 152.45C53.9746 152.4 53.4164 152.19 52.8756 151.795L51.6951 153.409ZM54.3654 154.44C55.3322 154.549 56.2729 154.377 57.1679 153.945L56.2989 152.144C55.7241 152.421 55.1608 152.517 54.5893 152.453L54.3654 154.44ZM57.1793 153.94C58.0455 153.508 58.783 152.851 59.4002 152.007L57.7858 150.826C57.3263 151.454 56.8241 151.882 56.2876 152.15L57.1793 153.94ZM59.4002 152.007C60.0294 151.146 60.445 150.229 60.6092 149.259L58.6373 148.926C58.5327 149.543 58.2615 150.175 57.7858 150.826L59.4002 152.007ZM60.6151 149.219C60.7366 148.27 60.6277 147.349 60.2806 146.473L58.4215 147.211C58.639 147.759 58.7115 148.338 58.6313 148.966L60.6151 149.219ZM60.264 146.434C59.8692 145.551 59.2426 144.81 58.4214 144.21L57.2409 145.824C57.8146 146.244 58.2013 146.72 58.4381 147.25L60.264 146.434ZM70.7945 140.537L56.2393 160.443L57.8538 161.624L72.4089 141.717L70.7945 140.537ZM57.6368 160.226L53.8299 157.443L52.6494 159.057L56.4563 161.841L57.6368 160.226ZM54.0469 158.84L56.7454 155.149L55.1309 153.969L52.4324 157.66L54.0469 158.84ZM56.6224 155.288L59.7478 152.356L58.3793 150.897L55.2539 153.83L56.6224 155.288ZM59.9624 152.065L61.8382 148.219L60.0406 147.342L58.1648 151.188L59.9624 152.065ZM61.7466 148.371L68.6311 138.955L67.0166 137.775L60.1321 147.19L61.7466 148.371ZM67.2336 139.172L71.0115 141.934L72.192 140.32L68.4141 137.558L67.2336 139.172Z" fill="white"/>
<path d="M44.904 126.3L45.9033 126.261L45.9029 126.251L45.9023 126.242L44.904 126.3ZM44.2652 129.45L45.1636 129.889L45.1636 129.889L44.2652 129.45ZM42.0971 131.818L42.5956 132.685L42.6136 132.675L42.6312 132.663L42.0971 131.818ZM36.7605 134.887L37.2225 135.774L37.241 135.764L37.2591 135.754L36.7605 134.887ZM33.6233 135.57L33.5452 136.567L33.5511 136.567L33.6233 135.57ZM30.5485 134.556L30.0118 135.399L30.0203 135.405L30.5485 134.556ZM27.0512 127.68L28.0506 127.715L28.0506 127.715L27.0512 127.68ZM28.3703 123.474L29.2153 124.009L29.2225 123.998L28.3703 123.474ZM36.3907 118.862L36.4145 119.862L36.4281 119.861L36.3907 118.862ZM40.689 119.837L40.2166 120.718L40.2166 120.718L40.689 119.837ZM38.8612 124.169L39.3665 123.306L39.3551 123.299L39.3434 123.293L38.8612 124.169ZM36.6539 123.653L36.6858 124.652L36.6984 124.652L36.6539 123.653ZM32.4096 126.093L33.2432 126.646L33.2544 126.629L33.2649 126.611L32.4096 126.093ZM31.7458 128.261L32.7455 128.284L32.7458 128.271L32.7458 128.258L31.7458 128.261ZM34.025 132.224L34.5303 131.361L34.5189 131.354L34.5073 131.348L34.025 132.224ZM36.2502 132.772L36.2821 133.771L36.2947 133.771L36.2502 132.772ZM40.4944 130.331L41.328 130.883L41.3392 130.867L41.3497 130.849L40.4944 130.331ZM41.1583 128.164L42.1575 128.204L42.1584 128.182L42.1583 128.161L41.1583 128.164ZM54.674 127.908L55.1725 128.775L56.0394 128.276L55.5409 127.409L54.674 127.908ZM33.2966 140.201L32.4298 140.7L32.9283 141.566L33.7952 141.068L33.2966 140.201ZM30.9457 136.113L30.4471 135.246L29.5803 135.744L30.0788 136.611L30.9457 136.113ZM34.909 133.834L34.5793 132.89L34.4913 132.92L34.4105 132.967L34.909 133.834ZM38.9552 132.42L39.2849 133.365L39.4584 133.304L39.599 133.186L38.9552 132.42ZM42.2296 129.665L41.7311 128.798L41.6539 128.843L41.5858 128.9L42.2296 129.665ZM52.3409 123.851L53.2078 123.352L52.7093 122.485L51.8424 122.984L52.3409 123.851ZM43.0055 123.488C43.5587 124.45 43.8501 125.404 43.9057 126.358L45.9023 126.242C45.8268 124.946 45.4304 123.693 44.7393 122.491L43.0055 123.488ZM43.9048 126.34C43.9435 127.322 43.7603 128.206 43.3668 129.011L45.1636 129.889C45.7115 128.768 45.9541 127.553 45.9033 126.261L43.9048 126.34ZM43.3668 129.011C42.9837 129.794 42.3933 130.448 41.5629 130.973L42.6312 132.663C43.7503 131.956 44.6053 131.031 45.1636 129.889L43.3668 129.011ZM41.5986 130.951L36.262 134.02L37.2591 135.754L42.5956 132.685L41.5986 130.951ZM36.2986 134C35.4274 134.454 34.5656 134.635 33.6956 134.572L33.5511 136.567C34.8189 136.659 36.0485 136.385 37.2225 135.774L36.2986 134ZM33.7014 134.573C32.7612 134.499 31.8903 134.213 31.0766 133.706L30.0203 135.405C31.1031 136.078 32.2821 136.468 33.5452 136.567L33.7014 134.573ZM31.0851 133.712C30.2741 133.196 29.5913 132.474 29.0418 131.518L27.308 132.515C28.0028 133.724 28.9024 134.694 30.0119 135.399L31.0851 133.712ZM29.0418 131.518C28.3262 130.274 28.0051 129.012 28.0506 127.715L26.0518 127.645C25.9923 129.343 26.4204 130.972 27.308 132.515L29.0418 131.518ZM28.0506 127.715C28.0966 126.4 28.4801 125.17 29.2152 124.009L27.5255 122.939C26.6067 124.39 26.1107 125.964 26.0518 127.645L28.0506 127.715ZM29.2225 123.998C29.9408 122.828 30.9689 121.846 32.3383 121.059L31.3413 119.325C29.7148 120.26 28.4299 121.467 27.5182 122.951L29.2225 123.998ZM32.3383 121.059C33.6848 120.284 35.04 119.894 36.4145 119.862L36.367 117.862C34.6279 117.904 32.9492 118.4 31.3413 119.325L32.3383 121.059ZM36.4281 119.861C37.8015 119.81 39.0575 120.097 40.2166 120.718L41.1614 118.956C39.6792 118.161 38.0697 117.798 36.3533 117.863L36.4281 119.861ZM40.2166 120.718C41.3605 121.332 42.29 122.244 43.0055 123.488L44.7393 122.491C43.8517 120.948 42.6589 119.758 41.1614 118.956L40.2166 120.718ZM41.3759 125.381C40.8688 124.499 40.2014 123.795 39.3665 123.306L38.3558 125.032C38.8566 125.325 39.2879 125.762 39.6422 126.378L41.3759 125.381ZM39.3434 123.293C38.4943 122.825 37.5764 122.61 36.6094 122.654L36.6984 124.652C37.297 124.625 37.8506 124.754 38.3789 125.045L39.3434 123.293ZM36.622 122.653C35.6196 122.685 34.6475 122.988 33.7149 123.525L34.7119 125.258C35.4021 124.861 36.057 124.672 36.6858 124.652L36.622 122.653ZM33.7149 123.525C32.7997 124.051 32.066 124.731 31.5544 125.575L33.2649 126.611C33.5771 126.096 34.046 125.641 34.7119 125.258L33.7149 123.525ZM31.5761 125.541C31.0269 126.369 30.7431 127.284 30.7458 128.263L32.7458 128.258C32.7442 127.69 32.903 127.159 33.2432 126.646L31.5761 125.541ZM30.7461 128.237C30.7226 129.224 30.9843 130.17 31.4969 131.062L33.2307 130.065C32.8819 129.458 32.7316 128.87 32.7455 128.284L30.7461 128.237ZM31.4969 131.062C32.0004 131.937 32.6826 132.627 33.5427 133.1L34.5073 131.348C33.99 131.063 33.5647 130.645 33.2307 130.065L31.4969 131.062ZM33.5197 133.087C34.3592 133.579 35.2889 133.803 36.2821 133.771L36.2183 131.772C35.5803 131.793 35.0266 131.652 34.5303 131.361L33.5197 133.087ZM36.2947 133.771C37.2615 133.728 38.2024 133.426 39.1088 132.904L38.1118 131.171C37.437 131.559 36.8045 131.746 36.2057 131.773L36.2947 133.771ZM39.1088 132.904C40.0329 132.373 40.7846 131.703 41.328 130.883L39.6609 129.779C39.3149 130.301 38.8105 130.769 38.1118 131.171L39.1088 132.904ZM41.3497 130.849C41.8458 130.03 42.1198 129.144 42.1575 128.204L40.1591 128.123C40.1355 128.713 39.9669 129.272 39.6392 129.813L41.3497 130.849ZM42.1583 128.161C42.1557 127.193 41.8831 126.262 41.3759 125.381L39.6422 126.378C39.9964 126.994 40.1567 127.586 40.1583 128.166L42.1583 128.161ZM54.1755 127.041L32.7981 139.334L33.7952 141.068L55.1725 128.775L54.1755 127.041ZM34.1635 139.703L31.8125 135.614L30.0788 136.611L32.4298 140.7L34.1635 139.703ZM31.4442 136.98L35.4076 134.701L34.4105 132.967L30.4471 135.246L31.4442 136.98ZM35.2388 134.778L39.2849 133.365L38.6254 131.476L34.5793 132.89L35.2388 134.778ZM39.599 133.186L42.8734 130.431L41.5858 128.9L38.3114 131.655L39.599 133.186ZM42.7281 130.532L52.8394 124.718L51.8424 122.984L41.7311 128.798L42.7281 130.532ZM51.474 124.349L53.8071 128.406L55.5409 127.409L53.2078 123.352L51.474 124.349Z" fill="white"/>
<path d="M42.7425 107.672L42.952 108.65L43.9298 108.441L43.7203 107.463L42.7425 107.672ZM25.7406 111.316L24.7628 111.526L24.9724 112.504L25.9502 112.294L25.7406 111.316ZM24.7447 106.67L24.5351 105.692L23.5574 105.902L23.7669 106.88L24.7447 106.67ZM41.7466 103.026L42.7244 102.816L42.5148 101.839L41.537 102.048L41.7466 103.026ZM22.1577 111.606L22.9844 112.168L22.9909 112.159L22.9973 112.149L22.1577 111.606ZM18.3912 112.413L18.9148 111.561L18.9148 111.561L18.3912 112.413ZM17.5915 108.682L18.4043 109.264L18.4114 109.254L18.4182 109.244L17.5915 108.682ZM21.3579 107.875L20.8344 108.727L20.8354 108.727L21.3579 107.875ZM42.5329 106.695L25.531 110.339L25.9502 112.294L42.952 108.65L42.5329 106.695ZM26.7184 111.107L25.7225 106.46L23.7669 106.88L24.7628 111.526L26.7184 111.107ZM24.9543 107.648L41.9562 104.004L41.537 102.048L24.5351 105.692L24.9543 107.648ZM40.7688 103.236L41.7647 107.882L43.7203 107.463L42.7244 102.816L40.7688 103.236ZM21.5192 109.791C21.6293 110.305 21.5493 110.705 21.3181 111.063L22.9973 112.149C23.5404 111.31 23.6866 110.36 23.4748 109.372L21.5192 109.791ZM21.3309 111.043C21.0731 111.422 20.7197 111.664 20.2057 111.775L20.6248 113.73C21.6128 113.518 22.4209 112.996 22.9844 112.168L21.3309 111.043ZM20.2057 111.775C19.7243 111.878 19.3129 111.806 18.9148 111.561L17.8677 113.265C18.7133 113.785 19.6513 113.939 20.6248 113.73L20.2057 111.775ZM18.9148 111.561C18.539 111.33 18.3017 111.003 18.1947 110.504L16.2391 110.923C16.454 111.926 16.9997 112.732 17.8677 113.265L18.9148 111.561ZM18.1947 110.504C18.0806 109.971 18.1718 109.589 18.4043 109.264L16.7787 108.099C16.1798 108.935 16.0213 109.907 16.2391 110.923L18.1947 110.504ZM18.4182 109.244C18.6811 108.858 19.0268 108.624 19.5082 108.521L19.0891 106.565C18.1156 106.774 17.3231 107.299 16.7647 108.119L18.4182 109.244ZM19.5082 108.521C20.0222 108.41 20.4439 108.487 20.8344 108.727L21.8815 107.023C21.0282 106.498 20.077 106.353 19.0891 106.565L19.5082 108.521ZM20.8354 108.727C21.1623 108.928 21.4019 109.244 21.5192 109.791L23.4748 109.372C23.2601 108.371 22.7403 107.549 21.8805 107.022L20.8354 108.727Z" fill="white"/>
<path d="M36.0223 84.0206L36.7404 84.7167L36.7493 84.7072L36.0223 84.0206ZM32.0216 86.4586L32.2961 87.4203L32.3084 87.4166L32.0216 86.4586ZM23.0362 84.1071L22.3204 84.8055L22.3242 84.8093L23.0362 84.1071ZM20.7558 80.0738L21.723 79.8192L21.7195 79.8067L20.7558 80.0738ZM23.0171 71.2879L23.7116 72.0073L23.7195 71.9997L23.7273 71.9918L23.0171 71.2879ZM26.7861 69.1608L27.0233 70.1323L27.0339 70.1297L27.0444 70.1269L26.7861 69.1608ZM32.273 69.5392L31.882 70.4596L31.912 70.4724L31.9428 70.4831L32.273 69.5392ZM33.2705 69.9907L34.2376 70.2452L34.4387 69.4812L33.742 69.1088L33.2705 69.9907ZM29.5501 84.1253L29.2932 85.0917L30.262 85.3493L30.5172 84.3798L29.5501 84.1253ZM26.1406 83.2189L25.1734 82.9648L24.92 83.9291L25.8836 84.1853L26.1406 83.2189ZM29.2968 71.2065L30.2184 70.8184L29.077 68.108L28.3296 70.9524L29.2968 71.2065ZM30.233 73.4297L30.0213 74.407L31.9012 74.8143L31.1546 73.0416L30.233 73.4297ZM27.58 73.3204L27.7409 74.3074L27.7549 74.3051L27.7688 74.3024L27.58 73.3204ZM25.6885 74.2703L26.364 75.0077L26.381 74.9921L26.3972 74.9758L25.6885 74.2703ZM24.5557 78.8117L25.5193 78.5446L25.516 78.5325L25.5123 78.5204L24.5557 78.8117ZM25.8442 80.8306L25.1822 81.5801L25.192 81.5886L25.8442 80.8306ZM31.107 82.1924L31.2975 83.1741L31.3156 83.1706L31.3335 83.1664L31.107 82.1924ZM33.2905 80.9849L33.9973 81.6923L34.006 81.6837L34.0144 81.6748L33.2905 80.9849ZM34.7502 76.1951L35.7429 76.0747L35.7412 76.0606L35.7391 76.0466L34.7502 76.1951ZM33.909 74.0345L33.4073 73.1694L32.4853 73.7042L33.0777 74.5903L33.909 74.0345ZM37.3002 72.0677L38.1231 71.4995L37.5979 70.739L36.7985 71.2027L37.3002 72.0677ZM38.6618 75.6332L37.6703 75.7636L37.6713 75.7706L38.6618 75.6332ZM37.4178 79.3628C36.9863 80.9863 36.2725 82.2992 35.2953 83.334L36.7493 84.7072C37.9841 83.3998 38.845 81.7788 39.3507 79.8767L37.4178 79.3628ZM35.3042 83.3246C34.2927 84.3682 33.1071 85.0898 31.7349 85.5006L32.3084 87.4166C34.0119 86.9067 35.4934 86.003 36.7403 84.7166L35.3042 83.3246ZM31.7472 85.497C30.4059 85.8798 28.978 85.8812 27.4412 85.4727L26.9273 87.4055C28.7769 87.8973 30.5739 87.9117 32.2961 87.4202L31.7472 85.497ZM27.4412 85.4727C25.9247 85.0695 24.705 84.3751 23.7482 83.4049L22.3242 84.8093C23.5581 86.0605 25.1039 86.9208 26.9273 87.4055L27.4412 85.4727ZM23.7519 83.4087C22.7609 82.3931 22.0869 81.2018 21.7229 79.8192L19.7888 80.3285C20.2403 82.0434 21.0866 83.541 22.3204 84.8055L23.7519 83.4087ZM21.7195 79.8067C21.3387 78.4329 21.3377 77.0132 21.7325 75.5282L19.7997 75.0143C19.3188 76.8229 19.311 78.605 19.7922 80.3409L21.7195 79.8067ZM21.7325 75.5282C22.1236 74.0571 22.7901 72.8969 23.7116 72.0073L22.3225 70.5684C21.106 71.7428 20.2718 73.2382 19.7997 75.0143L21.7325 75.5282ZM23.7273 71.9918C24.6485 71.0625 25.7408 70.4455 27.0233 70.1323L26.5489 68.1894C24.91 68.5896 23.4896 69.3906 22.3068 70.5839L23.7273 71.9918ZM27.0444 70.1269C28.3015 69.7907 29.645 69.8008 31.0952 70.1864L31.6091 68.2535C29.8586 67.7881 28.1579 67.7588 26.5277 68.1948L27.0444 70.1269ZM31.0952 70.1864C31.3473 70.2534 31.6094 70.3438 31.882 70.4596L32.6641 68.6189C32.3119 68.4692 31.9601 68.3468 31.6091 68.2535L31.0952 70.1864ZM31.9428 70.4831C32.1764 70.5649 32.4607 70.6917 32.7991 70.8726L33.742 69.1088C33.3412 68.8945 32.9604 68.7203 32.6033 68.5954L31.9428 70.4831ZM32.3035 69.7361L28.5831 83.8708L30.5172 84.3798L34.2376 70.2452L32.3035 69.7361ZM29.8071 83.1589L26.3975 82.2524L25.8836 84.1853L29.2932 85.0917L29.8071 83.1589ZM27.1077 83.473L30.2639 71.4607L28.3296 70.9524L25.1734 82.9648L27.1077 83.473ZM28.3752 71.5947L29.3114 73.8178L31.1546 73.0416L30.2184 70.8184L28.3752 71.5947ZM30.4448 72.4524C29.3452 72.2142 28.3192 72.16 27.3913 72.3384L27.7688 74.3024C28.3588 74.189 29.1014 74.2077 30.0213 74.407L30.4448 72.4524ZM27.4192 72.3335C26.4716 72.4879 25.6455 72.8961 24.9798 73.5648L26.3972 74.9758C26.748 74.6234 27.1828 74.3984 27.7409 74.3074L27.4192 72.3335ZM25.013 73.533C24.3158 74.1717 23.8571 75.0251 23.5919 76.0225L25.5248 76.5363C25.7159 75.8173 26.0107 75.3314 26.364 75.0077L25.013 73.533ZM23.5919 76.0225C23.3106 77.0809 23.2987 78.1169 23.5991 79.1031L25.5123 78.5204C25.3353 77.9393 25.3252 77.2871 25.5248 76.5363L23.5919 76.0225ZM23.592 79.0788C23.8626 80.0551 24.4033 80.8921 25.1822 81.5801L26.5062 80.0811C25.998 79.6322 25.6797 79.1233 25.5193 78.5446L23.592 79.0788ZM25.192 81.5886C25.9577 82.2474 26.9153 82.7088 28.0231 83.0033L28.537 81.0705C27.6501 80.8347 26.9838 80.4918 26.4964 80.0725L25.192 81.5886ZM28.0231 83.0033C29.1609 83.3058 30.2583 83.3757 31.2975 83.1741L30.9166 81.2107C30.2276 81.3444 29.4403 81.3106 28.537 81.0705L28.0231 83.0033ZM31.3335 83.1664C32.3603 82.9276 33.2551 82.4338 33.9973 81.6923L32.5838 80.2774C32.1087 80.752 31.5478 81.0632 30.8805 81.2184L31.3335 83.1664ZM34.0144 81.6748C34.7331 80.9208 35.2253 79.9813 35.5144 78.894L33.5815 78.3802C33.3649 79.1948 33.0189 79.8205 32.5667 80.2949L34.0144 81.6748ZM35.5144 78.894C35.7705 77.9306 35.8536 76.9878 35.7429 76.0747L33.7574 76.3155C33.8334 76.942 33.7817 77.6273 33.5815 78.3802L35.5144 78.894ZM35.7391 76.0466C35.6002 75.1221 35.2649 74.2633 34.7404 73.4787L33.0777 74.5903C33.4416 75.1345 33.667 75.7161 33.7612 76.3436L35.7391 76.0466ZM34.4107 74.8995L37.8019 72.9328L36.7985 71.2027L33.4073 73.1694L34.4107 74.8995ZM36.4773 72.6359C37.1202 73.5669 37.5179 74.6047 37.6704 75.7636L39.6533 75.5028C39.4605 74.037 38.9505 72.6977 38.1231 71.4995L36.4773 72.6359ZM37.6713 75.7706C37.8302 76.9169 37.7505 78.1115 37.4178 79.3628L39.3507 79.8767C39.7456 78.3911 39.8509 76.928 39.6523 75.4959L37.6713 75.7706Z" fill="white"/>
<path d="M43.9911 63.013L43.6472 62.074L43.6472 62.074L43.9911 63.013ZM39.5764 63.4029L39.3989 64.3872L39.4124 64.3894L39.5764 63.4029ZM32.2835 57.7097L31.3662 58.1082L31.3718 58.1206L32.2835 57.7097ZM31.5682 53.3606L30.5738 53.2549L30.573 53.2634L31.5682 53.3606ZM35.9684 47.0221L36.3895 47.9292L36.3982 47.925L35.9684 47.0221ZM39.1269 46.4279L39.046 47.4246L39.0613 47.4258L39.0766 47.4266L39.1269 46.4279ZM42.1308 47.4941L42.7462 46.7059L42.7294 46.6928L42.7121 46.6805L42.1308 47.4941ZM47.0117 51.3044L47.66 50.5431L47.6438 50.5293L47.627 50.5162L47.0117 51.3044ZM48.8256 53.9536L47.8783 54.2739L47.8783 54.2739L48.8256 53.9536ZM49.044 57.184L48.0602 57.0047L48.0602 57.0047L49.044 57.184ZM45.6034 54.8635L46.5953 54.991L46.5965 54.9804L45.6034 54.8635ZM45.2506 52.6242L44.3366 53.0302L44.3419 53.0417L45.2506 52.6242ZM41.3913 49.6114L41.1935 50.5917L41.2133 50.5957L41.2333 50.5989L41.3913 49.6114ZM39.1334 49.8126L39.4726 50.7534L39.4927 50.7461L39.5125 50.738L39.1334 49.8126ZM36.2979 53.4449L35.3047 53.328L35.3038 53.3361L35.303 53.3441L36.2979 53.4449ZM36.6506 55.6841L35.7311 56.077L35.7363 56.0894L35.7419 56.1016L36.6506 55.6841ZM40.5099 58.6969L40.312 59.6771L40.3319 59.6811L40.3519 59.6843L40.5099 58.6969ZM42.79 58.4673L43.1444 59.4024L43.1568 59.3977L43.1691 59.3927L42.79 58.4673ZM53.2391 52.5123L54.0273 53.1276L54.6427 52.3394L53.8544 51.724L53.2391 52.5123ZM50.3592 56.2013L49.7439 56.9895L50.5321 57.6049L51.1475 56.8166L50.3592 56.2013ZM46.6702 53.3214L45.9263 53.9896L45.9853 54.0553L46.0548 54.1097L46.6702 53.3214ZM43.7869 50.1115L44.5309 49.4432L44.408 49.3065L44.2446 49.2224L43.7869 50.1115ZM40.0078 48.166L39.3925 48.9543L39.4666 49.0121L39.5501 49.0551L40.0078 48.166ZM29.8205 40.2132L29.0322 39.5978L28.4169 40.3861L29.2051 41.0014L29.8205 40.2132ZM32.7225 36.4958L33.3379 35.7075L32.5496 35.0922L31.9342 35.8804L32.7225 36.4958ZM46.7977 59.7235C45.9144 60.8549 44.8659 61.6277 43.6472 62.074L44.335 63.952C45.9304 63.3678 47.2784 62.3577 48.3742 60.9542L46.7977 59.7235ZM43.6472 62.074C42.4091 62.5275 41.1129 62.6446 39.7403 62.4165L39.4124 64.3894C41.1121 64.6719 42.7591 64.5292 44.335 63.952L43.6472 62.074ZM39.7538 62.4188C38.408 62.1762 37.1235 61.5895 35.8949 60.6304L34.6642 62.2069C36.1219 63.345 37.702 64.0812 39.3989 64.3871L39.7538 62.4188ZM35.8949 60.6304C34.6454 59.655 33.7562 58.5434 33.1951 57.2987L31.3718 58.1206C32.0813 59.6946 33.1894 61.0557 34.6642 62.2069L35.8949 60.6304ZM33.2007 57.3112C32.6441 56.0302 32.4372 54.7506 32.5635 53.4578L30.573 53.2634C30.4119 54.9128 30.6818 56.5326 31.3663 58.1081L33.2007 57.3112ZM32.5626 53.4664C32.6995 52.1786 33.2006 50.9641 34.1005 49.8113L32.524 48.5806C31.4154 50.0007 30.7538 51.5626 30.5738 53.2549L32.5626 53.4664ZM34.1005 49.8113C34.7836 48.9363 35.5481 48.3197 36.3894 47.9292L35.5473 46.1151C34.3832 46.6555 33.3768 47.4882 32.524 48.5806L34.1005 49.8113ZM36.3982 47.925C37.2622 47.5137 38.1393 47.3511 39.046 47.4246L39.2077 45.4311C37.9383 45.3282 36.7097 45.5617 35.5386 46.1192L36.3982 47.925ZM39.0766 47.4266C39.9615 47.4712 40.7799 47.758 41.5495 48.3078L42.7121 46.6805C41.6444 45.9177 40.4601 45.4937 39.1771 45.4291L39.0766 47.4266ZM41.5155 48.2824L46.3963 52.0927L47.627 50.5162L42.7462 46.7059L41.5155 48.2824ZM46.3634 52.0658C47.0902 52.6847 47.5886 53.4171 47.8783 54.2739L49.7729 53.6333C49.3632 52.4217 48.6524 51.3881 47.66 50.5431L46.3634 52.0658ZM47.8783 54.2739C48.1712 55.1404 48.2352 56.0448 48.0602 57.0047L50.0278 57.3634C50.2609 56.0843 50.1793 54.8351 49.7729 53.6333L47.8783 54.2739ZM48.0602 57.0047C47.8878 57.9502 47.476 58.8546 46.7977 59.7235L48.3742 60.9542C49.2318 59.8556 49.792 58.6568 50.0278 57.3634L48.0602 57.0047ZM45.4279 57.6494C46.0648 56.8335 46.4725 55.9456 46.5952 54.991L44.6116 54.7359C44.5422 55.2755 44.3074 55.8346 43.8514 56.4187L45.4279 57.6494ZM46.5965 54.9804C46.7099 54.0178 46.5634 53.0864 46.1593 52.2068L44.3419 53.0417C44.592 53.5862 44.6808 54.1476 44.6102 54.7466L46.5965 54.9804ZM46.1645 52.2183C45.7574 51.3018 45.1104 50.5154 44.2624 49.8534L43.0317 51.4299C43.6593 51.9198 44.0813 52.4552 44.3367 53.0302L46.1645 52.2183ZM44.2624 49.8534C43.4302 49.2037 42.5243 48.78 41.5493 48.624L41.2333 50.5989C41.8282 50.6941 42.4262 50.9572 43.0317 51.4299L44.2624 49.8534ZM41.5892 48.6312C40.6148 48.4345 39.6608 48.5159 38.7543 48.8873L39.5125 50.738C40.0385 50.5225 40.5897 50.4698 41.1935 50.5917L41.5892 48.6312ZM38.7943 48.8719C37.8745 49.2035 37.0995 49.7984 36.4671 50.6084L38.0436 51.8391C38.4746 51.2871 38.9516 50.9412 39.4726 50.7534L38.7943 48.8719ZM36.4671 50.6084C35.823 51.4335 35.4207 52.3428 35.3047 53.328L37.291 53.5618C37.3589 52.9855 37.5949 52.414 38.0436 51.8391L36.4671 50.6084ZM35.303 53.3441C35.2081 54.2808 35.3549 55.1967 35.7311 56.077L37.5702 55.2912C37.3217 54.7096 37.2333 54.1327 37.2928 53.5456L35.303 53.3441ZM35.7419 56.1016C36.1459 56.981 36.78 57.7388 37.6043 58.3823L38.835 56.8058C38.2214 56.3268 37.8096 55.8114 37.5594 55.2667L35.7419 56.1016ZM37.6043 58.3823C38.4445 59.0382 39.3478 59.4825 40.312 59.6771L40.7078 57.7167C40.0939 57.5927 39.4703 57.3017 38.835 56.8058L37.6043 58.3823ZM40.3519 59.6843C41.3073 59.8372 42.2441 59.7437 43.1444 59.4024L42.4356 57.5323C41.8656 57.7483 41.2824 57.8078 40.6679 57.7095L40.3519 59.6843ZM43.1691 59.3927C44.0599 59.0278 44.8133 58.4366 45.4279 57.6494L43.8514 56.4187C43.4322 56.9557 42.9525 57.3201 42.4109 57.542L43.1691 59.3927ZM52.4508 51.8969L49.571 55.5859L51.1475 56.8166L54.0273 53.1276L52.4508 51.8969ZM50.9746 55.413L47.2856 52.5332L46.0548 54.1097L49.7439 56.9895L50.9746 55.413ZM47.4142 52.6532L44.5309 49.4432L43.043 50.7797L45.9263 53.9896L47.4142 52.6532ZM44.2446 49.2224L40.4655 47.2769L39.5501 49.0551L43.3292 51.0006L44.2446 49.2224ZM40.6232 47.3778L30.4358 39.4249L29.2051 41.0014L39.3925 48.9543L40.6232 47.3778ZM30.6087 40.8285L33.5107 37.1111L31.9342 35.8804L29.0322 39.5978L30.6087 40.8285ZM32.1071 37.284L52.6237 53.3005L53.8544 51.724L33.3379 35.7075L32.1071 37.284Z" fill="white"/>
<path d="M61.5507 45.4344L61.5568 46.4344L61.5653 46.4343L61.5507 45.4344ZM57.8135 44.4306L58.3216 43.5692L58.3216 43.5692L57.8135 44.4306ZM50.0644 32.6365L49.5763 31.7636L48.7035 32.2517L49.1915 33.1245L50.0644 32.6365ZM54.2121 30.3174L55.0849 29.8294L54.5969 28.9566L53.724 29.4446L54.2121 30.3174ZM60.3064 40.4796L59.7137 41.285L59.7209 41.2903L59.7281 41.2954L60.3064 40.4796ZM61.8112 40.958L61.8182 41.958L61.8182 41.958L61.8112 40.958ZM65.0531 38.568L66.0259 38.7998L66.0259 38.7998L65.0531 38.568ZM59.6795 27.2605L59.1915 26.3876L58.3186 26.8757L58.8067 27.7485L59.6795 27.2605ZM63.7958 24.959L64.6686 24.471L64.1806 23.5981L63.3078 24.0861L63.7958 24.959ZM69.8029 37.7683L68.803 37.7501L68.8029 37.7579L68.8029 37.7658L69.8029 37.7683ZM68.701 41.4778L69.5412 42.0201L69.5452 42.0139L68.701 41.4778ZM65.1191 43.4072C63.9047 44.0862 62.7137 44.4172 61.536 44.4345L61.5653 46.4343C63.1149 46.4116 64.6282 45.973 66.0951 45.1528L65.1191 43.4072ZM61.5445 44.4344C60.3813 44.4416 59.3135 44.1543 58.3216 43.5692L57.3055 45.2919C58.6111 46.062 60.0347 46.4438 61.5568 46.4344L61.5445 44.4344ZM58.3216 43.5692C57.3448 42.9931 56.5197 42.1329 55.8564 40.9466L54.1107 41.9227C54.9233 43.3759 55.9847 44.5129 57.3055 45.2919L58.3216 43.5692ZM55.8564 40.9466L50.9372 32.1485L49.1915 33.1245L54.1107 41.9227L55.8564 40.9466ZM50.5524 33.5093L54.7001 31.1903L53.724 29.4446L49.5763 31.7636L50.5524 33.5093ZM53.3392 30.8054L58.2057 39.5093L59.9514 38.5333L55.0849 29.8294L53.3392 30.8054ZM58.2057 39.5093C58.6104 40.2331 59.1073 40.8389 59.7137 41.285L60.899 39.6741C60.5711 39.4328 60.2495 39.0664 59.9514 38.5333L58.2057 39.5093ZM59.7281 41.2954C60.3511 41.7369 61.0566 41.9633 61.8182 41.958L61.8043 39.958C61.4702 39.9604 61.1726 39.8678 60.8846 39.6637L59.7281 41.2954ZM61.8182 41.958C62.5629 41.9528 63.2836 41.7342 63.9693 41.3508L62.9933 39.6051C62.5478 39.8542 62.1552 39.9556 61.8043 39.958L61.8182 41.958ZM63.9693 41.3508C65.0176 40.7647 65.7588 39.9204 66.0259 38.7998L64.0803 38.3362C63.9694 38.8017 63.6627 39.2308 62.9933 39.6051L63.9693 41.3508ZM66.0259 38.7998C66.2898 37.6923 66.0277 36.5652 65.4188 35.4764L63.6732 36.4524C64.1185 37.2488 64.1944 37.8575 64.0803 38.3362L66.0259 38.7998ZM65.4188 35.4764L60.5523 26.7725L58.8067 27.7485L63.6732 36.4524L65.4188 35.4764ZM60.1675 28.1333L64.2838 25.8318L63.3078 24.0861L59.1915 26.3876L60.1675 28.1333ZM62.9229 25.447L67.8422 34.2452L69.5878 33.2691L64.6686 24.471L62.9229 25.447ZM67.8422 34.2452C68.5187 35.4551 68.8237 36.619 68.803 37.7501L70.8027 37.7866C70.8307 36.2507 70.4105 34.7406 69.5878 33.2691L67.8422 34.2452ZM68.8029 37.7658C68.8 38.8923 68.4901 39.9446 67.8569 40.9416L69.5452 42.0139C70.3743 40.7085 70.799 39.2879 70.8029 37.7709L68.8029 37.7658ZM67.8608 40.9355C67.2403 41.897 66.3392 42.725 65.1191 43.4072L66.0951 45.1528C67.5564 44.3358 68.7179 43.2957 69.5412 42.02L67.8608 40.9355Z" fill="white"/>
<path d="M81.2288 37.6758L80.2424 37.8401L80.4067 38.8265L81.3931 38.6622L81.2288 37.6758ZM78.348 14.9076L79.2869 15.2521L79.2901 15.243L78.348 14.9076ZM80.4493 11.9663L81.0777 12.7442L81.0777 12.7442L80.4493 11.9663ZM87.1016 10.4931L87.3729 9.53062L87.3729 9.53062L87.1016 10.4931ZM89.528 11.6947L90.3452 12.2711L90.9079 11.4735L90.124 10.8917L89.528 11.6947ZM87.0776 15.1686L86.4963 15.9823L87.3149 16.5671L87.8948 15.745L87.0776 15.1686ZM86.1248 14.7069L86.3889 13.7424L86.3889 13.7424L86.1248 14.7069ZM83.0472 15.7306L82.2335 15.1493L82.2335 15.1493L83.0472 15.7306ZM85.8807 36.9008L86.045 37.8872L87.0314 37.7228L86.8671 36.7364L85.8807 36.9008ZM75.0745 25.2705L74.0881 25.4348L74.2525 26.4212L75.2389 26.2569L75.0745 25.2705ZM74.3942 21.1868L74.2298 20.2004L73.2434 20.3647L73.4078 21.3511L74.3942 21.1868ZM88.1013 18.9032L89.0877 18.7388L88.9233 17.7524L87.9369 17.9168L88.1013 18.9032ZM88.7816 22.9869L88.9459 23.9733L89.9323 23.809L89.768 22.8225L88.7816 22.9869ZM82.2152 37.5114L79.0501 18.5133L77.0773 18.842L80.2424 37.8401L82.2152 37.5114ZM79.0501 18.5133C78.8456 17.2857 78.9365 16.2072 79.2869 15.252L77.4092 14.5632C76.923 15.8886 76.8243 17.3233 77.0773 18.842L79.0501 18.5133ZM79.2901 15.243C79.641 14.2574 80.2306 13.4286 81.0777 12.7442L79.8208 11.1885C78.6951 12.098 77.8838 13.23 77.406 14.5723L79.2901 15.243ZM81.0777 12.7442C81.9084 12.0731 82.9676 11.6117 84.2949 11.3905L83.9662 9.41773C82.3581 9.68566 80.963 10.2657 79.8208 11.1885L81.0777 12.7442ZM84.2949 11.3905C85.2978 11.2235 86.1349 11.2596 86.8303 11.4556L87.3729 9.53062C86.3323 9.23728 85.1887 9.21407 83.9662 9.41773L84.2949 11.3905ZM86.8303 11.4556C87.5772 11.6661 88.2766 12.0112 88.9321 12.4977L90.124 10.8917C89.2803 10.2655 88.3621 9.80944 87.3729 9.53062L86.8303 11.4556ZM88.7109 11.1183L86.2605 14.5922L87.8948 15.745L90.3452 12.2711L88.7109 11.1183ZM87.6589 14.3549C87.2674 14.0753 86.8436 13.867 86.3889 13.7424L85.8606 15.6714C86.0688 15.7284 86.2802 15.8279 86.4963 15.9823L87.6589 14.3549ZM86.3889 13.7424C85.8741 13.6014 85.3163 13.6088 84.7531 13.7027L85.0818 15.6755C85.4655 15.6116 85.7127 15.6309 85.8606 15.6714L86.3889 13.7424ZM84.7531 13.7027C83.7142 13.8758 82.8214 14.3263 82.2335 15.1493L83.8609 16.3119C84.0621 16.0301 84.4162 15.7864 85.0818 15.6755L84.7531 13.7027ZM82.2335 15.1493C81.6577 15.9552 81.5412 16.9382 81.7115 17.9604L83.6843 17.6317C83.5706 16.9494 83.6869 16.5554 83.8609 16.3119L82.2335 15.1493ZM81.7115 17.9604L84.8943 37.0651L86.8671 36.7364L83.6843 17.6317L81.7115 17.9604ZM85.7164 35.9144L81.0645 36.6894L81.3931 38.6622L86.045 37.8872L85.7164 35.9144ZM76.0609 25.1061L75.3806 21.0224L73.4078 21.3511L74.0881 25.4348L76.0609 25.1061ZM74.5585 22.1732L88.2656 19.8896L87.9369 17.9168L74.2298 20.2004L74.5585 22.1732ZM87.1148 19.0675L87.7952 23.1512L89.768 22.8225L89.0877 18.7388L87.1148 19.0675ZM88.6173 22.0005L74.9102 24.2841L75.2389 26.2569L88.9459 23.9733L88.6173 22.0005Z" fill="white"/>
<path d="M100.464 35.6275L99.8242 36.396L99.8343 36.4042L100.464 35.6275ZM97.7321 31.8217L96.7938 32.1677L96.7984 32.1797L97.7321 31.8217ZM99.4007 22.6847L98.6504 22.0236L98.6469 22.0276L99.4007 22.6847ZM103.251 20.1073L103.578 21.0526L103.59 21.0482L103.251 20.1073ZM112.182 21.7009L111.517 22.4476L111.525 22.455L111.534 22.4621L112.182 21.7009ZM114.587 25.2991L113.636 25.6088L113.639 25.6192L113.643 25.6295L114.587 25.2991ZM114.622 30.799L113.675 30.4784L113.665 30.5092L113.656 30.5407L114.622 30.799ZM114.247 31.8277L114.066 32.8111L114.843 32.9542L115.162 32.2314L114.247 31.8277ZM99.8728 29.1816L98.8898 28.9981L98.7059 29.9836L99.6918 30.1651L99.8728 29.1816ZM100.52 25.7135L100.701 24.7299L99.7199 24.5498L99.537 25.53L100.52 25.7135ZM112.736 27.9567L113.192 28.8465L115.809 27.5043L112.916 26.9731L112.736 27.9567ZM110.589 29.0576L109.599 28.92L109.334 30.8252L111.046 29.9474L110.589 29.0576ZM110.499 26.4039L109.527 26.6386L109.53 26.6524L109.534 26.6661L110.499 26.4039ZM109.409 24.5892L108.725 25.3183L108.742 25.334L108.759 25.349L109.409 24.5892ZM104.795 23.8014L105.134 24.7422L105.146 24.7379L105.158 24.7334L104.795 23.8014ZM102.879 25.2382L102.082 24.6345L102.074 24.6449L102.879 25.2382ZM101.917 30.5886L100.953 30.8524L100.958 30.8702L100.963 30.8878L101.917 30.5886ZM103.286 32.6751L102.634 33.433L102.643 33.441L102.652 33.4488L103.286 32.6751ZM108.172 33.77L108.367 34.7509L108.381 34.7481L108.394 34.745L108.172 33.77ZM110.263 32.7687L111.088 32.2033L110.485 31.3242L109.646 31.9815L110.263 32.7687ZM112.479 36.0022L113.108 36.78L113.827 36.1991L113.304 35.4368L112.479 36.0022ZM109.027 37.6283L108.822 36.6495L108.815 36.6509L109.027 37.6283ZM105.214 36.6686C103.563 36.3604 102.2 35.7475 101.094 34.8509L99.8343 36.4042C101.231 37.537 102.912 38.2735 104.847 38.6346L105.214 36.6686ZM101.104 34.8591C99.9875 33.929 99.1787 32.8011 98.6658 31.4636L96.7984 32.1797C97.4351 33.84 98.4477 35.2494 99.8243 36.3959L101.104 34.8591ZM98.6703 31.4757C98.1877 30.167 98.0788 28.7432 98.3705 27.18L96.4045 26.8131C96.0533 28.6944 96.1742 30.4874 96.7939 32.1677L98.6703 31.4757ZM98.3705 27.18C98.6584 25.6375 99.259 24.369 100.154 23.3419L98.6469 22.0276C97.4921 23.3522 96.7506 24.9583 96.4045 26.8131L98.3705 27.18ZM100.151 23.3459C101.089 22.2812 102.226 21.5195 103.578 21.0525L102.924 19.1622C101.248 19.7415 99.8185 20.6981 98.6504 22.0236L100.151 23.3459ZM103.59 21.0482C104.931 20.5651 106.347 20.4572 107.857 20.7391L108.224 18.7731C106.384 18.4297 104.607 18.5561 102.912 19.1665L103.59 21.0482ZM107.857 20.7391C109.354 21.0184 110.561 21.5957 111.517 22.4476L112.847 20.9542C111.585 19.8295 110.031 19.1102 108.224 18.7731L107.857 20.7391ZM111.534 22.4621C112.53 23.3107 113.227 24.3535 113.636 25.6088L115.538 24.9895C115.015 23.3854 114.11 22.0294 112.831 20.9397L111.534 22.4621ZM113.643 25.6295C114.073 26.8577 114.164 28.1981 113.888 29.6733L115.855 30.0402C116.187 28.2596 116.088 26.5616 115.531 24.9688L113.643 25.6295ZM113.888 29.6733C113.841 29.9296 113.77 30.1979 113.675 30.4784L115.57 31.1197C115.692 30.7572 115.788 30.3973 115.855 30.0402L113.888 29.6733ZM113.656 30.5407C113.592 30.7799 113.487 31.0728 113.332 31.4239L115.162 32.2314C115.346 31.8156 115.491 31.4228 115.588 31.0573L113.656 30.5407ZM114.428 30.8442L100.054 28.1981L99.6918 30.1651L114.066 32.8111L114.428 30.8442ZM100.856 29.3651L101.503 25.8969L99.537 25.53L98.8898 28.9981L100.856 29.3651ZM100.339 26.697L112.555 28.9402L112.916 26.9731L100.701 24.7299L100.339 26.697ZM112.279 27.0669L110.133 28.1678L111.046 29.9474L113.192 28.8465L112.279 27.0669ZM111.58 29.1952C111.735 28.0808 111.711 27.0536 111.464 26.1417L109.534 26.6661C109.691 27.2458 109.728 27.9878 109.599 28.92L111.58 29.1952ZM111.471 26.1692C111.245 25.236 110.776 24.4429 110.059 23.8294L108.759 25.349C109.137 25.6723 109.394 26.089 109.527 26.6386L111.471 26.1692ZM110.094 23.8601C109.404 23.213 108.519 22.8198 107.504 22.6305L107.137 24.5965C107.869 24.733 108.375 24.9903 108.725 25.3183L110.094 23.8601ZM107.504 22.6305C106.428 22.4296 105.394 22.4957 104.433 22.8694L105.158 24.7334C105.724 24.5132 106.374 24.454 107.137 24.5965L107.504 22.6305ZM104.457 22.8606C103.503 23.2039 102.709 23.806 102.082 24.6345L103.676 25.842C104.086 25.3014 104.569 24.9457 105.134 24.7422L104.457 22.8606ZM102.074 24.6449C101.475 25.4581 101.087 26.4477 100.877 27.5745L102.843 27.9414C103.011 27.0393 103.303 26.3491 103.684 25.8316L102.074 24.6449ZM100.877 27.5745C100.661 28.7318 100.674 29.8313 100.953 30.8524L102.882 30.3248C102.697 29.6478 102.671 28.8602 102.843 27.9414L100.877 27.5745ZM100.963 30.8878C101.279 31.8937 101.838 32.7487 102.634 33.433L103.938 31.9171C103.429 31.4791 103.077 30.9431 102.872 30.2894L100.963 30.8878ZM102.652 33.4488C103.458 34.1087 104.432 34.5288 105.538 34.7352L105.905 32.7692C105.076 32.6145 104.426 32.3165 103.919 31.9013L102.652 33.4488ZM105.538 34.7352C106.518 34.9181 107.464 34.93 108.367 34.7509L107.977 32.7892C107.358 32.9121 106.671 32.9121 105.905 32.7692L105.538 34.7352ZM108.394 34.745C109.306 34.5369 110.137 34.1379 110.88 33.5558L109.646 31.9815C109.131 32.3854 108.568 32.6539 107.949 32.7951L108.394 34.745ZM109.438 33.3341L111.655 36.5676L113.304 35.4368L111.088 32.2033L109.438 33.3341ZM111.851 35.2244C110.971 35.9356 109.966 36.4103 108.822 36.6495L109.231 38.6072C110.678 38.3046 111.975 37.6952 113.108 36.78L111.851 35.2244ZM108.815 36.6509C107.684 36.8957 106.487 36.9061 105.214 36.6686L104.847 38.6346C106.358 38.9166 107.825 38.9115 109.238 38.6057L108.815 36.6509Z" fill="white"/>
<path d="M121.564 42.9359L120.834 43.619L120.839 43.6238L121.564 42.9359ZM119.905 40.6706L119.019 41.1342L119.024 41.1442L119.03 41.154L119.905 40.6706ZM119.043 38.1301L118.798 37.1607L117.906 37.3866L118.057 38.2942L119.043 38.1301ZM122.917 37.1493L123.9 36.9653L123.704 35.9185L122.672 36.1798L122.917 37.1493ZM123.922 39.5235L123.111 40.1092L123.111 40.1092L123.922 39.5235ZM127.556 41.9313L127.613 40.9329L127.601 40.9322L127.588 40.9318L127.556 41.9313ZM128.606 40.1259L127.707 40.5632L127.712 40.5748L127.718 40.5862L128.606 40.1259ZM127.555 38.7331L126.822 39.4138L126.834 39.426L126.845 39.4379L127.555 38.7331ZM126.054 37.1105L125.293 37.7587L125.305 37.7736L125.319 37.788L126.054 37.1105ZM124.733 35.26L123.859 35.7463L123.866 35.7582L123.873 35.77L124.733 35.26ZM124.117 33.0785L123.117 33.0803L123.117 33.1015L123.118 33.1227L124.117 33.0785ZM127.102 28.489L126.683 27.5809L126.674 27.5852L126.664 27.5897L127.102 28.489ZM130.092 28.0669L129.973 29.0598L129.973 29.0598L130.092 28.0669ZM136.431 31.9842L135.614 32.5608L135.619 32.5669L136.431 31.9842ZM137.753 35.4337L137.992 36.4047L138.841 36.1956L138.747 35.3267L137.753 35.4337ZM133.848 36.396L132.858 36.5354L133.012 37.6319L134.087 37.3669L133.848 36.396ZM133.034 34.2632L132.214 34.8351L132.221 34.846L133.034 34.2632ZM129.886 32.2337L129.917 31.2342L129.903 31.2337L129.889 31.2337L129.886 32.2337ZM128.96 33.9037L128.081 34.3789L128.086 34.3898L128.093 34.4005L128.96 33.9037ZM130.042 35.315L129.31 35.9957L129.321 36.0079L129.333 36.0197L130.042 35.315ZM131.512 36.919L130.751 37.5673L130.764 37.5822L130.777 37.5966L131.512 36.919ZM132.815 38.8003L131.921 39.2488L131.925 39.2561L131.929 39.2633L132.815 38.8003ZM133.363 41.0248L132.363 41.0267L132.363 41.0395L132.363 41.0524L133.363 41.0248ZM128.901 46.1094L129.034 47.1006L129.045 47.0989L128.901 46.1094ZM124.372 43.9277C123.608 43.4655 122.914 42.9063 122.29 42.2479L120.839 43.6238C121.584 44.4107 122.418 45.0832 123.337 45.6392L124.372 43.9277ZM122.295 42.2527C121.683 41.599 121.18 40.9103 120.78 40.1871L119.03 41.154C119.514 42.0308 120.117 42.8524 120.834 43.619L122.295 42.2527ZM120.791 40.2069C120.408 39.4759 120.157 38.7298 120.029 37.9661L118.057 38.2942C118.22 39.2766 118.543 40.2242 119.019 41.1342L120.791 40.2069ZM119.288 39.0996L123.163 38.1187L122.672 36.1798L118.798 37.1607L119.288 39.0996ZM121.935 37.3332C122.126 38.3567 122.517 39.2867 123.111 40.1092L124.732 38.9377C124.319 38.3656 124.04 37.7128 123.9 36.9653L121.935 37.3332ZM123.111 40.1092C123.703 40.9272 124.47 41.6121 125.393 42.1702L126.427 40.4587C125.707 40.0234 125.149 39.5143 124.732 38.9377L123.111 40.1092ZM125.393 42.1702C126.102 42.5991 126.829 42.9089 127.525 42.9308L127.588 40.9318C127.403 40.926 127.033 40.8245 126.427 40.4587L125.393 42.1702ZM127.5 42.9297C127.869 42.9507 128.25 42.895 128.607 42.716C128.968 42.5351 129.242 42.2584 129.439 41.9335L127.727 40.8987C127.712 40.9236 127.703 40.9329 127.702 40.9338C127.701 40.9342 127.705 40.9312 127.71 40.9284C127.725 40.9211 127.705 40.9381 127.613 40.9329L127.5 42.9297ZM129.439 41.9335C129.879 41.2054 129.876 40.4036 129.494 39.6655L127.718 40.5862C127.772 40.6895 127.776 40.7461 127.775 40.7678C127.775 40.7867 127.771 40.8264 127.727 40.8987L129.439 41.9335ZM129.505 39.6885C129.229 39.1202 128.8 38.5676 128.264 38.0284L126.845 39.4379C127.286 39.8816 127.558 40.2575 127.707 40.5632L129.505 39.6885ZM128.288 38.0525C127.813 37.5416 127.314 37.0018 126.789 36.4329L125.319 37.788C125.844 38.3588 126.346 38.9007 126.822 39.4138L128.288 38.0525ZM126.815 36.4623C126.36 35.9277 125.953 35.3572 125.593 34.75L123.873 35.77C124.29 36.4743 124.764 37.1374 125.293 37.7587L126.815 36.4623ZM125.607 34.7737C125.306 34.2339 125.143 33.6583 125.116 33.0343L123.118 33.1227C123.159 34.0548 123.407 34.9335 123.859 35.7463L125.607 34.7737ZM125.117 33.0766C125.116 32.526 125.307 31.8603 125.79 31.0611L124.078 30.0263C123.469 31.0346 123.115 32.0586 123.117 33.0803L125.117 33.0766ZM125.79 31.0611C126.275 30.2583 126.861 29.718 127.539 29.3882L126.664 27.5897C125.594 28.1102 124.735 28.9397 124.078 30.0263L125.79 31.0611ZM127.521 29.397C128.227 29.071 129.035 28.9477 129.973 29.0598L130.21 27.074C128.951 26.9235 127.765 27.0816 126.683 27.5809L127.521 29.397ZM129.973 29.0598C130.901 29.1708 131.901 29.5301 132.978 30.1813L134.013 28.4698C132.748 27.7054 131.479 27.2257 130.21 27.074L129.973 29.0598ZM132.978 30.1813C134.109 30.8653 134.979 31.6614 135.614 32.5608L137.248 31.4075C136.433 30.2523 135.346 29.276 134.013 28.4698L132.978 30.1813ZM135.619 32.5669C136.265 33.4678 136.642 34.4541 136.759 35.5408L138.747 35.3267C138.593 33.8934 138.089 32.58 137.244 31.4014L135.619 32.5669ZM137.514 34.4628L133.609 35.425L134.087 37.3669L137.992 36.4047L137.514 34.4628ZM134.838 36.2565C134.702 35.292 134.38 34.4236 133.847 33.6805L132.221 34.846C132.541 35.2911 132.76 35.8446 132.858 36.5354L134.838 36.2565ZM133.854 33.6914C133.362 32.9856 132.724 32.4025 131.957 31.9388L130.923 33.6503C131.47 33.9814 131.895 34.3774 132.214 34.8351L133.854 33.6914ZM131.957 31.9388C131.292 31.5365 130.601 31.2556 129.917 31.2342L129.855 33.2332C130.051 33.2394 130.397 33.3325 130.923 33.6503L131.957 31.9388ZM129.889 31.2337C129.158 31.2312 128.502 31.5455 128.102 32.207L129.814 33.2418C129.823 33.2269 129.827 33.2239 129.824 33.2271C129.82 33.2306 129.814 33.2354 129.807 33.2392C129.8 33.2428 129.799 33.2418 129.809 33.2397C129.819 33.2374 129.843 33.2335 129.883 33.2337L129.889 31.2337ZM128.102 32.207C127.675 32.9135 127.707 33.6868 128.081 34.3789L129.84 33.4284C129.79 33.3361 129.791 33.2953 129.791 33.2947C129.791 33.2929 129.791 33.2911 129.793 33.2865C129.794 33.2812 129.799 33.2665 129.814 33.2418L128.102 32.207ZM128.093 34.4005C128.388 34.9166 128.802 35.4488 129.31 35.9957L130.775 34.6343C130.332 34.1572 130.024 33.7485 129.828 33.4069L128.093 34.4005ZM129.333 36.0197C129.801 36.4914 130.274 37.007 130.751 37.5673L132.274 36.2708C131.767 35.6753 131.26 35.1215 130.752 34.6103L129.333 36.0197ZM130.777 37.5966C131.239 38.0986 131.62 38.6488 131.921 39.2488L133.709 38.3519C133.323 37.5831 132.835 36.8791 132.248 36.2415L130.777 37.5966ZM131.929 39.2633C132.218 39.8178 132.362 40.4011 132.363 41.0267L134.363 41.023C134.361 40.0762 134.14 39.1766 133.701 38.3374L131.929 39.2633ZM132.363 41.0524C132.379 41.6067 132.199 42.2695 131.721 43.0608L133.432 44.0956C134.047 43.0796 134.391 42.0402 134.363 40.9973L132.363 41.0524ZM131.721 43.0608C130.981 44.2851 130.005 44.9374 128.756 45.12L129.045 47.0989C130.934 46.8229 132.409 45.7877 133.432 44.0956L131.721 43.0608ZM128.768 45.1183C127.504 45.2878 126.052 44.9432 124.372 43.9277L123.337 45.6392C125.273 46.8093 127.184 47.3486 129.034 47.1006L128.768 45.1183Z" fill="white"/>
<path d="M136.492 54.2452L135.836 53.491L135.081 54.1475L135.738 54.9018L136.492 54.2452ZM155.066 38.0782L155.82 37.4216L155.163 36.6673L154.409 37.3239L155.066 38.0782ZM158.162 41.6353L158.818 42.3896L159.573 41.7331L158.916 40.9788L158.162 41.6353ZM139.589 57.8024L138.834 58.459L139.491 59.2132L140.245 58.5567L139.589 57.8024ZM143.814 42.4788L143.157 41.7245L142.403 42.3811L143.06 43.1353L143.814 42.4788ZM146.937 39.7606L147.691 39.1041L147.034 38.3498L146.28 39.0064L146.937 39.7606ZM155.375 49.4546L156.031 50.2089L156.786 49.5523L156.129 48.798L155.375 49.4546ZM152.252 52.1727L151.498 52.8293L152.154 53.5836L152.909 52.927L152.252 52.1727ZM137.149 54.9995L155.722 38.8325L154.409 37.3239L135.836 53.491L137.149 54.9995ZM154.311 38.7347L157.408 42.2919L158.916 40.9788L155.82 37.4216L154.311 38.7347ZM157.505 40.8811L138.932 57.0481L140.245 58.5567L158.818 42.3896L157.505 40.8811ZM140.343 57.1459L137.247 53.5887L135.738 54.9018L138.834 58.459L140.343 57.1459ZM144.471 43.2331L147.593 40.5149L146.28 39.0064L143.157 41.7245L144.471 43.2331ZM146.182 40.4172L154.621 50.1111L156.129 48.798L147.691 39.1041L146.182 40.4172ZM154.718 48.7003L151.596 51.4185L152.909 52.927L156.031 50.2089L154.718 48.7003ZM153.006 51.5162L144.568 41.8222L143.06 43.1353L151.498 52.8293L153.006 51.5162Z" fill="white"/>
<circle cx="95.5127" cy="158.513" r="11.5127" fill="#E44B55"/>
<path d="M154.856 69.8805L155.393 69.0368L153.418 67.7805L153.876 70.076L154.856 69.8805ZM162.619 74.8185L162.082 75.6623L162.093 75.6688L162.619 74.8185ZM164.078 75.629L164.51 74.7272L164.503 74.7242L164.078 75.629ZM165.259 76.0299L165.092 77.016L165.1 77.0172L165.107 77.0184L165.259 76.0299ZM167.82 75.0056L166.958 74.4982L166.954 74.5057L166.95 74.5133L167.82 75.0056ZM167.116 71.3526L167.824 70.6459L167.815 70.6368L167.116 71.3526ZM165.018 70.1557L164.144 69.6697L163.57 70.7029L164.684 71.0982L165.018 70.1557ZM166.441 67.5962L166.772 66.6526L165.977 66.3735L165.567 67.1102L166.441 67.5962ZM169.448 69.5421L168.698 70.2036L168.701 70.2073L169.448 69.5421ZM170.921 75.709L169.963 75.4229L169.961 75.4305L170.921 75.709ZM169.531 77.9438L170.194 78.6924L170.194 78.6924L169.531 77.9438ZM165.139 79.2352L165.247 78.241L165.234 78.2396L165.22 78.2385L165.139 79.2352ZM163.327 78.7397L163.738 77.8281L163.733 77.8258L163.327 78.7397ZM161.201 77.5239L161.756 76.6922L161.747 76.6866L161.201 77.5239ZM155.658 73.9054L154.678 74.1008L154.76 74.5129L155.112 74.7427L155.658 73.9054ZM153.02 70.2464L152.825 69.2657L151.844 69.4611L152.04 70.4418L153.02 70.2464ZM154.856 69.8805L155.72 69.376L155.36 68.7604L154.661 68.8998L154.856 69.8805ZM156.342 72.4232L157.323 72.2277L157.29 72.0634L157.205 71.9187L156.342 72.4232ZM158.106 81.2731L158.301 82.2539L159.282 82.0584L159.086 81.0777L158.106 81.2731ZM155.328 81.8267L154.348 82.0221L154.543 83.0028L155.524 82.8074L155.328 81.8267ZM154.32 70.7243L162.082 75.6623L163.156 73.9747L155.393 69.0368L154.32 70.7243ZM162.093 75.6688C162.671 76.0266 163.192 76.3175 163.652 76.5339L164.503 74.7242C164.135 74.5509 163.684 74.3015 163.145 73.9682L162.093 75.6688ZM163.646 76.5309C164.136 76.766 164.621 76.9364 165.092 77.016L165.425 75.0439C165.188 75.0038 164.885 74.9069 164.51 74.7272L163.646 76.5309ZM165.107 77.0184C165.585 77.0916 166.061 77.0855 166.527 76.9925L166.137 75.0311C165.913 75.0757 165.673 75.0817 165.41 75.0415L165.107 77.0184ZM166.527 76.9925C167.456 76.8075 168.223 76.3235 168.69 75.4979L166.95 74.5133C166.813 74.7541 166.589 74.9409 166.137 75.0311L166.527 76.9925ZM168.682 75.513C169.135 74.7432 169.225 73.8713 169.047 72.9746L167.085 73.3656C167.188 73.8812 167.115 74.2328 166.958 74.4982L168.682 75.513ZM169.047 72.9746C168.867 72.0721 168.462 71.2845 167.824 70.646L166.409 72.0593C166.75 72.4004 166.977 72.8245 167.085 73.3656L169.047 72.9746ZM167.815 70.6368C167.191 70.0282 166.348 69.5662 165.352 69.2132L164.684 71.0982C165.514 71.3928 166.07 71.7288 166.418 72.0685L167.815 70.6368ZM165.892 70.6417L167.315 68.0821L165.567 67.1102L164.144 69.6697L165.892 70.6417ZM166.11 68.5398C167.219 68.9287 168.068 69.4898 168.698 70.2036L170.198 68.8806C169.309 67.8738 168.155 67.1376 166.772 66.6526L166.11 68.5398ZM168.701 70.2073C169.347 70.9331 169.791 71.8375 170.013 72.9533L171.975 72.5624C171.69 71.1363 171.103 69.8968 170.194 68.8769L168.701 70.2073ZM170.013 72.9533C170.203 73.9072 170.172 74.7223 169.963 75.4229L171.879 75.9951C172.199 74.9263 172.216 73.774 171.975 72.5624L170.013 72.9533ZM169.961 75.4305C169.749 76.1596 169.384 76.7381 168.868 77.1951L170.194 78.6924C171.009 77.9706 171.571 77.0592 171.882 75.9875L169.961 75.4305ZM168.868 77.1951C168.354 77.6504 167.688 77.9766 166.831 78.1475L167.222 80.1089C168.373 79.8795 169.377 79.4161 170.194 78.6924L168.868 77.1951ZM166.831 78.1475C166.239 78.2654 165.713 78.2915 165.247 78.241L165.031 80.2294C165.732 80.3051 166.464 80.2599 167.222 80.1089L166.831 78.1475ZM165.22 78.2385C164.772 78.2019 164.28 78.0723 163.738 77.8281L162.916 79.6514C163.629 79.9728 164.345 80.1735 165.057 80.2318L165.22 78.2385ZM163.733 77.8258C163.194 77.5865 162.537 77.2139 161.756 76.6923L160.645 78.3556C161.482 78.9145 162.243 79.3524 162.921 79.6536L163.733 77.8258ZM161.747 76.6866L156.205 73.068L155.112 74.7427L160.654 78.3613L161.747 76.6866ZM156.639 73.7099L155.837 69.6851L153.876 70.076L154.678 74.1008L156.639 73.7099ZM153.216 71.2271L155.052 70.8612L154.661 68.8998L152.825 69.2657L153.216 71.2271ZM153.993 70.385L155.478 72.9277L157.205 71.9187L155.72 69.376L153.993 70.385ZM155.361 72.6186L157.125 81.4686L159.086 81.0777L157.323 72.2277L155.361 72.6186ZM157.91 80.2924L155.133 80.8459L155.524 82.8074L158.301 82.2539L157.91 80.2924ZM156.309 81.6312L154.001 70.0509L152.04 70.4418L154.348 82.0221L156.309 81.6312Z" fill="white"/>
<path d="M153.314 102.108L153.991 102.844L153.314 102.108ZM156.876 100.322L156.669 99.3434L156.66 99.3455L156.876 100.322ZM165.768 102.455L166.4 101.68L166.4 101.68L165.768 102.455ZM168.121 105.61L169.058 105.262L169.056 105.255L168.121 105.61ZM166.447 112.588L165.775 111.848L165.77 111.853L166.447 112.588ZM162.89 114.351L162.683 113.373L162.678 113.374L162.89 114.351ZM153.975 112.213L153.343 112.988L153.347 112.991L153.975 112.213ZM151.622 109.057L150.683 109.403L150.687 109.412L151.622 109.057ZM154.471 108.087L153.558 108.496L153.558 108.496L154.471 108.087ZM156.036 109.795L156.597 108.968L156.59 108.963L156.583 108.958L156.036 109.795ZM162.197 111.273L162.088 110.279L162.08 110.28L162.072 110.281L162.197 111.273ZM164.348 110.431L163.721 109.653L163.709 109.663L163.697 109.673L164.348 110.431ZM165.272 106.581L164.352 106.973L164.356 106.982L164.36 106.99L165.272 106.581ZM163.736 104.855L164.298 104.027L164.289 104.022L163.736 104.855ZM157.575 103.377L157.466 102.383L157.458 102.384L157.45 102.385L157.575 103.377ZM155.4 104.213L154.773 103.434L154.773 103.434L155.4 104.213ZM152.396 105.59C152.661 104.486 153.191 103.58 153.991 102.844L152.636 101.372C151.536 102.385 150.806 103.645 150.451 105.124L152.396 105.59ZM153.991 102.844C154.795 102.104 155.817 101.581 157.093 101.298L156.66 99.3455C155.085 99.695 153.732 100.363 152.636 101.372L153.991 102.844ZM157.083 101.3C158.333 101.036 159.739 101.074 161.319 101.453L161.786 99.5084C159.974 99.0738 158.262 99.0064 156.669 99.3434L157.083 101.3ZM161.319 101.453C162.899 101.832 164.16 102.433 165.136 103.23L166.4 101.68C165.147 100.658 163.597 99.9429 161.786 99.5084L161.319 101.453ZM165.136 103.23C166.132 104.042 166.802 104.955 167.186 105.965L169.056 105.255C168.532 103.877 167.634 102.685 166.4 101.68L165.136 103.23ZM167.184 105.959C167.563 106.98 167.625 108.02 167.365 109.106L169.31 109.573C169.661 108.107 169.579 106.662 169.058 105.262L167.184 105.959ZM167.365 109.106C167.096 110.229 166.565 111.131 165.775 111.848L167.119 113.329C168.222 112.328 168.952 111.065 169.31 109.573L167.365 109.106ZM165.77 111.853C164.968 112.591 163.951 113.105 162.683 113.373L163.097 115.33C164.672 114.997 166.026 114.335 167.124 113.324L165.77 111.853ZM162.678 113.374C161.448 113.64 160.045 113.603 158.447 113.22L157.981 115.165C159.806 115.603 161.52 115.671 163.102 115.329L162.678 113.374ZM158.447 113.22C156.867 112.841 155.597 112.238 154.603 111.435L153.347 112.991C154.613 114.014 156.169 114.73 157.981 115.165L158.447 113.22ZM154.607 111.438C153.611 110.626 152.941 109.713 152.557 108.702L150.687 109.412C151.211 110.791 152.109 111.982 153.343 112.988L154.607 111.438ZM152.56 108.712C152.193 107.713 152.134 106.681 152.396 105.59L150.451 105.124C150.101 106.585 150.175 108.02 150.684 109.402L152.56 108.712ZM153.333 105.765C153.107 106.708 153.171 107.632 153.558 108.496L155.383 107.678C155.192 107.252 155.146 106.783 155.278 106.232L153.333 105.765ZM153.558 108.496C153.945 109.358 154.618 110.062 155.488 110.632L156.583 108.958C155.946 108.541 155.576 108.107 155.383 107.678L153.558 108.496ZM155.474 110.622C156.355 111.22 157.467 111.66 158.771 111.973L159.238 110.028C158.083 109.751 157.216 109.388 156.597 108.968L155.474 110.622ZM158.771 111.973C160.075 112.286 161.266 112.398 162.322 112.265L162.072 110.281C161.329 110.374 160.392 110.305 159.238 110.028L158.771 111.973ZM162.305 112.267C163.348 112.153 164.272 111.816 165 111.19L163.697 109.673C163.347 109.973 162.837 110.197 162.088 110.279L162.305 112.267ZM164.976 111.21C165.714 110.615 166.19 109.821 166.416 108.879L164.471 108.412C164.339 108.964 164.085 109.36 163.721 109.653L164.976 111.21ZM166.416 108.879C166.639 107.947 166.57 107.032 166.185 106.171L164.36 106.99C164.553 107.42 164.598 107.881 164.471 108.412L166.416 108.879ZM166.192 106.188C165.823 105.325 165.16 104.612 164.298 104.027L163.175 105.682C163.813 106.115 164.173 106.554 164.352 106.973L166.192 106.188ZM164.289 104.022C163.421 103.446 162.317 103.017 161.019 102.706L160.552 104.651C161.712 104.929 162.575 105.284 163.183 105.688L164.289 104.022ZM161.019 102.706C159.705 102.391 158.513 102.269 157.466 102.383L157.684 104.371C158.428 104.29 159.376 104.368 160.552 104.651L161.019 102.706ZM157.45 102.385C156.418 102.515 155.503 102.845 154.773 103.434L156.028 104.991C156.398 104.693 156.934 104.466 157.7 104.369L157.45 102.385ZM154.773 103.434C154.035 104.029 153.559 104.823 153.333 105.765L155.278 106.232C155.41 105.68 155.664 105.284 156.028 104.991L154.773 103.434Z" fill="white"/>
<path d="M150.924 126.721L151.914 126.581L151.587 124.264L150.138 126.102L150.924 126.721ZM152.207 135.831L151.217 135.971L151.219 135.983L152.207 135.831ZM152.538 137.467L153.504 137.21L153.502 137.203L152.538 137.467ZM153 138.626L152.142 139.139L152.145 139.146L152.149 139.152L153 138.626ZM155.441 139.909L155.268 138.924L155.259 138.925L155.251 138.927L155.441 139.909ZM157.763 137.002L158.76 137.081L158.761 137.068L157.763 137.002ZM157.311 134.629L157.114 133.649L155.955 133.882L156.377 134.986L157.311 134.629ZM160.182 134.05L161.115 133.689L160.811 132.903L159.984 133.069L160.182 134.05ZM160.654 137.6L159.664 137.459L159.663 137.464L160.654 137.6ZM156.92 142.724L156.515 141.81L156.508 141.813L156.92 142.724ZM154.318 143.118L154.179 144.108L154.179 144.108L154.318 143.118ZM150.484 140.615L151.31 140.052L151.302 140.041L151.295 140.03L150.484 140.615ZM149.684 138.915L150.645 138.636L150.643 138.631L149.684 138.915ZM149.229 136.509L150.222 136.391L150.22 136.381L149.229 136.509ZM148.383 129.944L147.598 129.325L147.337 129.655L147.391 130.072L148.383 129.944ZM149.453 125.562L150.072 124.777L149.287 124.158L148.668 124.943L149.453 125.562ZM150.924 126.721L151.868 127.05L152.103 126.377L151.543 125.936L150.924 126.721ZM149.954 129.502L150.739 130.121L150.843 129.989L150.898 129.831L149.954 129.502ZM144.368 136.589L143.749 137.374L144.534 137.993L145.153 137.208L144.368 136.589ZM142.144 134.835L141.358 134.216L140.739 135.002L141.525 135.621L142.144 134.835ZM149.933 126.86L151.217 135.971L153.198 135.692L151.914 126.581L149.933 126.86ZM151.219 135.983C151.322 136.655 151.439 137.24 151.573 137.73L153.502 137.203C153.395 136.811 153.292 136.305 153.196 135.68L151.219 135.983ZM151.571 137.724C151.711 138.25 151.896 138.729 152.142 139.139L153.858 138.112C153.734 137.905 153.611 137.612 153.504 137.21L151.571 137.724ZM152.149 139.152C152.404 139.563 152.717 139.921 153.091 140.215L154.329 138.645C154.15 138.503 153.99 138.325 153.85 138.099L152.149 139.152ZM153.091 140.215C153.834 140.801 154.701 141.071 155.632 140.89L155.251 138.927C154.979 138.98 154.691 138.93 154.329 138.645L153.091 140.215ZM155.615 140.893C156.495 140.738 157.217 140.241 157.783 139.523L156.212 138.285C155.886 138.698 155.571 138.87 155.268 138.924L155.615 140.893ZM157.783 139.523C158.352 138.8 158.688 137.981 158.76 137.081L156.766 136.922C156.728 137.403 156.553 137.852 156.212 138.285L157.783 139.523ZM158.761 137.068C158.819 136.199 158.623 135.257 158.245 134.271L156.377 134.986C156.693 135.809 156.798 136.45 156.765 136.936L158.761 137.068ZM157.509 135.609L160.38 135.03L159.984 133.069L157.114 133.649L157.509 135.609ZM159.249 134.41C159.673 135.506 159.798 136.516 159.664 137.459L161.644 137.741C161.833 136.412 161.643 135.055 161.115 133.689L159.249 134.41ZM159.663 137.464C159.531 138.427 159.131 139.351 158.426 140.244L159.997 141.483C160.897 140.341 161.458 139.089 161.644 137.736L159.663 137.464ZM158.426 140.244C157.824 141.008 157.184 141.514 156.515 141.81L157.324 143.639C158.344 143.188 159.232 142.453 159.997 141.483L158.426 140.244ZM156.508 141.813C155.816 142.125 155.139 142.223 154.457 142.127L154.179 144.108C155.257 144.259 156.315 144.095 157.332 143.635L156.508 141.813ZM154.457 142.127C153.777 142.032 153.096 141.737 152.41 141.196L151.172 142.767C152.093 143.493 153.098 143.956 154.179 144.108L154.457 142.127ZM152.41 141.196C151.936 140.823 151.575 140.439 151.31 140.052L149.658 141.179C150.055 141.761 150.565 142.288 151.172 142.767L152.41 141.196ZM151.295 140.03C151.032 139.666 150.811 139.207 150.645 138.636L148.724 139.195C148.943 139.946 149.254 140.62 149.673 141.2L151.295 140.03ZM150.643 138.631C150.475 138.066 150.332 137.324 150.222 136.391L148.236 136.626C148.354 137.626 148.515 138.489 148.726 139.2L150.643 138.631ZM150.22 136.381L149.375 129.816L147.391 130.072L148.237 136.636L150.22 136.381ZM149.168 130.563L151.709 127.34L150.138 126.102L147.598 129.325L149.168 130.563ZM148.834 126.347L150.305 127.506L151.543 125.936L150.072 124.777L148.834 126.347ZM149.979 126.392L149.01 129.172L150.898 129.831L151.868 127.05L149.979 126.392ZM149.169 128.883L143.582 135.97L145.153 137.208L150.739 130.121L149.169 128.883ZM144.987 135.803L142.763 134.05L141.525 135.621L143.749 137.374L144.987 135.803ZM142.929 135.454L150.239 126.181L148.668 124.943L141.358 134.216L142.929 135.454Z" fill="white"/>
<path d="M130.558 145.574L131.538 145.773L132.002 143.479L130.023 144.729L130.558 145.574ZM128.731 154.591L127.751 154.393L127.748 154.405L128.731 154.591ZM128.497 156.244L129.494 156.324L129.494 156.317L128.497 156.244ZM128.546 157.49L127.566 157.688L127.567 157.695L127.569 157.703L128.546 157.49ZM130.421 159.514L130.585 158.527L130.577 158.526L130.568 158.525L130.421 159.514ZM133.578 157.547L134.492 157.955L134.497 157.943L133.578 157.547ZM133.944 155.159L134.084 154.169L132.913 154.003L132.944 155.185L133.944 155.159ZM136.843 155.57L137.843 155.541L137.818 154.698L136.984 154.58L136.843 155.57ZM136.104 159.074L135.218 158.611L135.216 158.616L136.104 159.074ZM130.876 162.661L130.799 161.664L130.791 161.665L130.876 162.661ZM128.291 162.165L127.83 163.052L127.83 163.052L128.291 162.165ZM125.511 158.527L126.478 158.271L126.474 158.258L126.471 158.246L125.511 158.527ZM125.324 156.658L126.322 156.715L126.323 156.709L125.324 156.658ZM125.697 154.237L126.672 154.457L126.674 154.447L125.697 154.237ZM127.088 147.766L126.554 146.921L126.198 147.145L126.11 147.556L127.088 147.766ZM129.558 143.992L130.403 143.458L129.869 142.612L129.024 143.146L129.558 143.992ZM130.558 145.574L131.338 146.199L131.784 145.643L131.403 145.04L130.558 145.574ZM128.716 147.873L129.25 148.718L129.392 148.629L129.497 148.498L128.716 147.873ZM121.087 152.692L120.242 153.226L120.776 154.071L121.621 153.537L121.087 152.692ZM119.575 150.298L119.041 149.452L118.195 149.986L118.729 150.832L119.575 150.298ZM129.577 145.376L127.751 154.393L129.711 154.79L131.538 145.773L129.577 145.376ZM127.748 154.405C127.621 155.073 127.537 155.664 127.5 156.171L129.494 156.317C129.524 155.911 129.595 155.4 129.713 154.778L127.748 154.405ZM127.5 156.164C127.457 156.706 127.471 157.219 127.566 157.688L129.526 157.292C129.479 157.056 129.46 156.738 129.494 156.324L127.5 156.164ZM127.569 157.703C127.672 158.175 127.848 158.617 128.102 159.019L129.793 157.951C129.671 157.758 129.58 157.536 129.523 157.277L127.569 157.703ZM128.102 159.019C128.608 159.82 129.335 160.363 130.273 160.503L130.568 158.525C130.294 158.484 130.04 158.341 129.793 157.951L128.102 159.019ZM130.256 160.5C131.137 160.647 131.983 160.419 132.756 159.931L131.688 158.24C131.244 158.521 130.889 158.578 130.585 158.527L130.256 160.5ZM132.756 159.931C133.534 159.439 134.124 158.779 134.492 157.955L132.665 157.14C132.469 157.58 132.155 157.945 131.688 158.24L132.756 159.931ZM134.497 157.943C134.842 157.142 134.97 156.189 134.943 155.133L132.944 155.185C132.967 156.066 132.852 156.705 132.66 157.152L134.497 157.943ZM133.803 156.149L136.703 156.56L136.984 154.58L134.084 154.169L133.803 156.149ZM135.844 155.599C135.878 156.774 135.659 157.768 135.218 158.611L136.991 159.537C137.612 158.347 137.886 157.005 137.843 155.541L135.844 155.599ZM135.216 158.616C134.77 159.48 134.085 160.218 133.123 160.825L134.191 162.516C135.42 161.74 136.367 160.747 136.993 159.533L135.216 158.616ZM133.123 160.825C132.3 161.345 131.528 161.608 130.799 161.664L130.952 163.658C132.064 163.573 133.146 163.176 134.191 162.516L133.123 160.825ZM130.791 161.665C130.035 161.729 129.364 161.595 128.752 161.277L127.83 163.052C128.796 163.554 129.848 163.752 130.96 163.657L130.791 161.665ZM128.752 161.277C128.143 160.961 127.6 160.456 127.133 159.717L125.442 160.785C126.069 161.777 126.861 162.548 127.83 163.052L128.752 161.277ZM127.133 159.717C126.811 159.207 126.598 158.725 126.478 158.271L124.544 158.783C124.725 159.464 125.029 160.132 125.442 160.785L127.133 159.717ZM126.471 158.246C126.344 157.815 126.289 157.308 126.322 156.715L124.326 156.601C124.281 157.382 124.35 158.122 124.551 158.808L126.471 158.246ZM126.323 156.709C126.353 156.121 126.465 155.374 126.672 154.457L124.721 154.017C124.499 154.999 124.363 155.866 124.325 156.607L126.323 156.709ZM126.674 154.447L128.065 147.976L126.11 147.556L124.719 154.027L126.674 154.447ZM127.622 148.611L131.092 146.42L130.023 144.729L126.554 146.921L127.622 148.611ZM128.712 144.526L129.712 146.108L131.403 145.04L130.403 143.458L128.712 144.526ZM129.777 144.949L127.936 147.248L129.497 148.498L131.338 146.199L129.777 144.949ZM128.182 147.027L120.553 151.846L121.621 153.537L129.25 148.718L128.182 147.027ZM121.932 152.158L120.42 149.764L118.729 150.832L120.242 153.226L121.932 152.158ZM120.109 151.143L130.092 144.837L129.024 143.146L119.041 149.452L120.109 151.143Z" fill="white"/>
</svg>
