<svg width="931" height="394" viewBox="0 0 931 394" fill="none" xmlns="http://www.w3.org/2000/svg">
<rect x="23.5002" y="79.5" width="905" height="312" rx="17.5" fill="url(#paint0_linear_217_131)" stroke="#3F3F3F" stroke-width="5"/>
<path class="carousel-img" d="M0 64H900V344C900 355.046 891.046 364 880 364H20C8.9543 364 0 355.046 0 344V64Z" fill="#FF0000"/>

<path d="M2.5 60.5H897.5V344C897.5 353.665 889.665 361.5 880 361.5H20C10.335 361.5 2.5 353.665 2.5 344V60.5Z" stroke="#3F3F3F" stroke-width="5"/>
<path d="M20 17.5H880C889.665 17.5 897.5 25.335 897.5 35V61.5H2.5V35C2.5 25.335 10.335 17.5 20 17.5Z" fill="#C4C4C4" stroke="#3F3F3F" stroke-width="5"/>
<circle cx="31.5" cy="37.5" r="8" fill="#E44B55" stroke="black" stroke-width="5"/>
<circle cx="60.5" cy="37.5" r="8" fill="#FCD757" stroke="black" stroke-width="5"/>
<circle cx="89.5" cy="37.5" r="8" fill="#5DA3B2" stroke="black" stroke-width="5"/>
<defs>
<linearGradient id="paint0_linear_217_131" x1="21" y1="77" x2="945.593" y2="343.341" gradientUnits="userSpaceOnUse">
<stop stop-color="#FCD757"/>
<stop offset="1" stop-color="#E44B55"/>
</linearGradient>
</defs>
</svg>
